<svg width="20" height="20" viewBox="0 0 20 20" fill="none" xmlns="http://www.w3.org/2000/svg">
<path d="M0.287598 10.2467C0.287598 15.5728 4.60529 19.8905 9.93143 19.8905C15.2576 19.8905 19.5753 15.5728 19.5753 10.2467C19.5753 4.92056 15.2576 0.602867 9.93143 0.602867C4.60529 0.602867 0.287598 4.92056 0.287598 10.2467Z" fill="#DBE6EC"/>
<path d="M9.88355 5.99398C11.3414 5.99398 11.5402 5.99398 12.1366 5.99398C12.6667 5.99398 12.9317 6.12651 13.1305 6.19277C13.3956 6.3253 13.5944 6.39157 13.7932 6.59036C13.992 6.78916 14.1245 6.98795 14.1908 7.25301C14.257 7.45181 14.3233 7.71687 14.3896 8.24699C14.3896 8.84337 14.3896 8.9759 14.3896 10.5C14.3896 12.0241 14.3896 12.1566 14.3896 12.753C14.3896 13.2831 14.257 13.5482 14.1908 13.747C14.0582 14.012 13.992 14.2108 13.7932 14.4096C13.5944 14.6084 13.3956 14.741 13.1305 14.8072C12.9317 14.8735 12.6667 14.9398 12.1366 15.006C11.5402 15.006 11.4076 15.006 9.88355 15.006C8.35945 15.006 8.22692 15.006 7.63053 15.006C7.10041 15.006 6.83535 14.8735 6.63656 14.8072C6.3715 14.6747 6.1727 14.6084 5.97391 14.4096C5.77511 14.2108 5.64258 14.012 5.57632 13.747C5.51005 13.5482 5.44379 13.2831 5.37752 12.753C5.37752 12.1566 5.37752 12.0241 5.37752 10.5C5.37752 8.9759 5.37752 8.84337 5.37752 8.24699C5.37752 7.71687 5.51005 7.45181 5.57632 7.25301C5.70885 6.98795 5.77511 6.78916 5.97391 6.59036C6.1727 6.39157 6.3715 6.25904 6.63656 6.19277C6.83535 6.12651 7.10041 6.06024 7.63053 5.99398C8.22692 5.99398 8.42571 5.99398 9.88355 5.99398ZM9.88355 5C8.35945 5 8.22692 5 7.63053 5C7.03415 5 6.63656 5.13253 6.30523 5.26506C5.97391 5.39759 5.64258 5.59639 5.31126 5.92771C4.97993 6.25904 4.8474 6.5241 4.64861 6.92169C4.51608 7.25301 4.44981 7.6506 4.38354 8.24699C4.38354 8.84337 4.38354 9.04217 4.38354 10.5C4.38354 12.0241 4.38354 12.1566 4.38354 12.753C4.38354 13.3494 4.51608 13.747 4.64861 14.0783C4.78114 14.4096 4.97993 14.741 5.31126 15.0723C5.64258 15.4036 5.90764 15.5361 6.30523 15.7349C6.63656 15.8675 7.03415 15.9337 7.63053 16C8.22692 16 8.42571 16 9.88355 16C11.3414 16 11.5402 16 12.1366 16C12.7329 16 13.1305 15.8675 13.4619 15.7349C13.7932 15.6024 14.1245 15.4036 14.4558 15.0723C14.7872 14.741 14.9197 14.4759 15.1185 14.0783C15.251 13.747 15.3173 13.3494 15.3835 12.753C15.3835 12.1566 15.3835 11.9578 15.3835 10.5C15.3835 9.04217 15.3835 8.84337 15.3835 8.24699C15.3835 7.6506 15.251 7.25301 15.1185 6.92169C14.986 6.59036 14.7872 6.25904 14.4558 5.92771C14.1245 5.59639 13.8594 5.46386 13.4619 5.26506C13.1305 5.13253 12.7329 5.06627 12.1366 5C11.5402 5 11.4076 5 9.88355 5Z" fill="#131212"/>
<path d="M9.88355 7.6506C8.29318 7.6506 7.03415 8.90964 7.03415 10.5C7.03415 12.0904 8.29318 13.3494 9.88355 13.3494C11.4739 13.3494 12.7329 12.0904 12.7329 10.5C12.7329 8.90964 11.4739 7.6506 9.88355 7.6506ZM9.88355 12.3554C8.88957 12.3554 8.02812 11.5602 8.02812 10.5C8.02812 9.50602 8.8233 8.64458 9.88355 8.64458C10.8775 8.64458 11.739 9.43976 11.739 10.5C11.739 11.494 10.8775 12.3554 9.88355 12.3554Z" fill="#131212"/>
<path d="M12.7992 8.24699C13.1652 8.24699 13.4619 7.95031 13.4619 7.58434C13.4619 7.21837 13.1652 6.92169 12.7992 6.92169C12.4332 6.92169 12.1366 7.21837 12.1366 7.58434C12.1366 7.95031 12.4332 8.24699 12.7992 8.24699Z" fill="#131212"/>
</svg>
