<?xml version="1.0" standalone="no"?>
<!DOCTYPE svg PUBLIC "-//W3C//DTD SVG 20010904//EN"
 "http://www.w3.org/TR/2001/REC-SVG-20010904/DTD/svg10.dtd">
<svg version="1.0" xmlns="http://www.w3.org/2000/svg"
 width="700.000000pt" height="700.000000pt" viewBox="0 0 700.000000 700.000000"
 preserveAspectRatio="xMidYMid meet">
<metadata>
Created by potrace 1.14, written by Peter Selinger 2001-2017
</metadata>
<g transform="translate(0.000000,700.000000) scale(0.100000,-0.100000)"
fill="#000000" stroke="none">
<path d="M0 3500 l0 -3500 3500 0 3500 0 0 3500 0 3500 -3500 0 -3500 0 0
-3500z m3661 1999 c406 -41 769 -215 1045 -500 235 -244 381 -530 440 -869 18
-98 19 -181 19 -1285 l0 -1180 -1280 0 -1280 0 -3 388 -2 387 900 0 900 0 0
753 c0 463 -4 776 -10 815 -59 362 -338 651 -702 726 -43 9 -126 16 -188 16
-62 0 -145 -7 -188 -16 -364 -75 -643 -364 -702 -726 -5 -35 -10 -224 -10
-420 l0 -358 -386 0 -386 0 5 413 c5 442 10 502 62 682 78 270 215 498 419
700 351 347 855 525 1347 474z"/>
</g>
</svg>
