<svg width="24" height="28" viewBox="0 0 24 28" fill="none" xmlns="http://www.w3.org/2000/svg">
    <path d="M0 11.7824V16.576H5.5V11.7824C5.54545 8.288 8.40909 5.4656 12 5.4656C15.5909 5.4656 18.4545 8.288 18.5 11.7824V22.3552H14.8182H5.54546V28H24V11.7824C23.9545 5.2864 18.5909 0 12 0C5.36364 0 0 5.2416 0 11.7824Z" fill="currentColor"/>
    <path d="M0 16.576V11.7824C0 5.2416 5.36364 0 12 0C18.5909 0 23.9545 5.2864 24 11.7824V28H5.54546V22.3552H14.8182H18.5V11.7824C18.4545 8.288 15.5909 5.4656 12 5.4656C8.40909 5.4656 5.54545 8.288 5.5 11.7824V16.576H0Z" fill="currentColor"/>
</svg>
