<svg width="168" height="126" viewBox="0 0 168 126" fill="none" xmlns="http://www.w3.org/2000/svg">
    <title>Opéra de Lyon</title>
    <path d="M39.1704 104.095V110.359H46.3407V104.095C46.4 99.528 50.1333 95.8396 54.8148 95.8396C59.4963 95.8396 63.2296 99.528 63.2889 104.095V117.911H46.4V125.288H70.4593V104.095C70.4 95.6054 63.4074 88.697 54.8148 88.697C46.163 88.697 39.1704 95.5468 39.1704 104.095ZM64.9482 80.6762H86.3407V73.5921H72.7111V44.6705H64.9482V80.6762ZM3.4963 52.984C2.31111 52.984 1.12593 53.1596 0 53.5109V62.1172C1.12593 60.4193 2.9037 59.4826 5.27407 59.4826C9.06667 59.4826 11.8519 62.7026 11.8519 67.035C11.8519 72.0699 9.18518 74.646 5.39259 74.646C3.08148 74.646 1.18519 73.4751 0.0592593 71.6016V80.7933C1.06667 81.086 2.07407 81.2617 3.2 81.2617C7.22963 81.2617 10.1333 79.2711 11.6741 77.1634V80.6762H18.963V44.6705H11.5556V57.1993C10.0741 54.8575 7.40741 52.984 3.4963 52.984ZM20.0889 22.5402C20.0889 14.3437 13.6889 8.37206 5.62963 8.37206C3.61481 8.37206 1.71852 8.72333 0.0592593 9.36734V17.8565C1.3037 16.1587 3.25926 15.1634 5.62963 15.1634C9.65926 15.1634 12.7407 18.3249 12.7407 22.5402C12.7407 26.4627 9.71852 29.8584 5.62963 29.8584C3.31852 29.8584 1.36296 28.8046 0.0592593 27.1653V35.6544C1.77778 36.2984 3.67407 36.6497 5.62963 36.6497C13.6889 36.6497 20.0889 30.2682 20.0889 22.5402ZM30.2222 64.6932C30.7556 61.3561 33.4222 59.6582 35.9704 59.6582C39.6444 59.6582 41.3037 61.883 41.837 64.6932H30.2222ZM22.7556 67.1521C22.7556 75.7583 28.3259 81.2617 36.6222 81.2617C42.8444 81.2617 47.2889 78.0416 48.7111 72.9481L41.5407 72.187C40.5333 73.6507 38.9926 74.5874 36.6222 74.5874C33.3037 74.5874 30.5185 72.3041 30.163 69.3183H49.3037C49.4222 68.6743 49.4815 67.7376 49.4815 67.035C49.4815 59.0728 44.4444 52.984 36.1481 52.984C29.037 52.984 22.7556 58.7215 22.7556 67.1521ZM43.9111 22.5402C43.9111 27.0482 41.363 30.1511 37.3926 30.1511C33.6 30.1511 30.8148 27.1653 30.8148 22.5402C30.8148 17.6808 33.5407 14.9292 37.3333 14.9292C41.3037 14.9292 43.9111 18.2078 43.9111 22.5402ZM51.6148 22.5402C51.6148 14.1681 46.2222 8.37206 39.2296 8.37206C35.5556 8.37206 32.4741 10.5968 31.0519 12.8801V8.95752H23.6444V44.4949H31.0519V33.0199C32.8296 35.0104 35.2593 36.6497 39.1704 36.6497C45.7481 36.6497 51.6148 31.2049 51.6148 22.5402ZM69.8667 7.08405L75.0815 0H67.0222L64 7.08405H69.8667ZM73.0074 20.0812H61.3333C61.8667 16.7441 64.5333 15.0463 67.0815 15.0463C70.8741 14.9877 72.4741 17.2125 73.0074 20.0812ZM80.4148 24.7064C80.5333 24.0623 80.5926 23.1256 80.5926 22.4231C80.5926 14.4608 75.5556 8.37206 67.2593 8.37206C60.1481 8.37206 53.8667 14.051 53.8667 22.5402C53.8667 31.1464 59.437 36.6497 67.7333 36.6497C73.9556 36.6497 78.4 33.4297 79.8222 28.3362L72.6518 27.5751C71.6444 29.0387 70.1037 29.9755 67.7333 29.9755C64.4148 29.9755 61.6296 27.6922 61.2741 24.7064H80.4148ZM91.7333 53.628H83.3185L93.9259 79.2711L89.2444 89.1653H97.4815L112.593 53.628H104.356L98.1333 69.9623L91.7333 53.628ZM98.1926 16.0416C99.437 16.0416 100.385 16.2172 101.215 16.3343V8.48915C100.681 8.37206 99.7926 8.31351 99.4963 8.31351C96 8.31351 93.1555 10.3041 91.6741 14.4608V8.89897H84.2667V35.9472H91.6741V23.8867C91.6741 21.8962 91.8518 20.6667 92.0889 20.0227C92.9778 17.6223 94.9926 16.0416 98.1926 16.0416ZM118.4 24.882C118.4 29.1558 115.733 31.1464 112.711 31.1464C110.637 31.1464 109.393 30.034 109.393 28.5704C109.393 27.2238 110.104 26.0529 113.126 25.2918L115.793 24.5893C117.037 24.238 117.867 23.9453 118.341 23.4769V24.882H118.4ZM125.807 36.6497C126.4 36.6497 127.704 36.4741 128.178 36.1813V30.0926C127.822 30.2097 127.585 30.2682 127.23 30.2682C126.341 30.2682 125.807 29.7998 125.807 28.6875V19.1445C125.807 16.1001 125.333 14.7536 124.563 13.2899C123.022 10.3626 119.822 8.31351 114.667 8.31351C107.556 8.31351 103.289 12.4117 102.815 17.6223L110.222 17.9736C110.578 16.2172 111.822 14.8121 114.311 14.8121C116.919 14.8121 118.4 16.2172 118.4 18.0321C118.4 19.0859 117.748 19.6714 116.563 19.9056L111.407 20.9009C105.481 22.0718 102.104 24.1794 102.104 29.0387C102.104 33.7224 105.956 36.5912 110.637 36.5912C114.489 36.5912 117.037 34.7762 118.756 32.2002C119.822 34.6591 121.896 36.6497 125.807 36.6497ZM133.215 67.1521C133.215 71.0747 130.193 74.4703 126.104 74.4703C122.074 74.4703 119.052 71.2503 119.052 67.1521C119.052 62.9368 122.015 59.7753 126.104 59.7753C130.133 59.8339 133.215 62.9368 133.215 67.1521ZM140.622 67.1521C140.622 58.9557 134.222 52.984 126.163 52.984C117.985 52.984 111.644 58.9557 111.644 67.1521C111.644 75.29 117.985 81.2617 126.163 81.2617C134.281 81.2617 140.622 74.9387 140.622 67.1521ZM168 63.8735C168 61.4731 167.941 60.3608 167.585 58.9557C166.696 55.56 163.911 52.984 159.467 52.984C155.615 52.984 153.067 55.2087 151.644 57.9604V53.628H144.237V80.6762H151.644V66.0983C151.644 64.2248 151.822 63.5808 152 62.9953C152.593 61.0048 154.193 59.7168 156.504 59.7168C158.756 59.7168 160.119 60.8877 160.474 62.9368C160.652 63.6393 160.652 64.4004 160.652 65.8055V80.7347H168V63.8735Z" fill="currentColor"/>
</svg>
