<svg width="202" height="88" viewBox="0 0 202 88" fill="none" xmlns="http://www.w3.org/2000/svg">
    <path d="M7.792 9.032H0.784V23.816C0.784 26.648 0.928 28.424 1.264 29.624C2.128 32.888 4.624 35.576 9.232 35.576C12.304 35.576 14.608 33.656 16.288 30.776V35H23.296V9.032H16.288V23C16.288 24.728 16.144 25.352 16 25.928C15.52 27.896 14.032 29.096 11.68 29.096C9.664 29.096 8.368 28.136 7.984 26.36C7.84 25.64 7.792 24.872 7.792 23.528V9.032ZM44.9354 35H51.9434V18.872C51.9434 16.568 51.8954 15.512 51.5594 14.168C50.6954 10.904 48.0554 8.456 43.8794 8.456C40.2314 8.456 37.8314 10.616 36.4394 13.208V9.032H29.4314V35H36.4394V21.032C36.4394 19.256 36.5834 18.632 36.7754 18.056C37.3514 16.136 38.8394 14.888 41.0474 14.888C43.1594 14.888 44.4554 15.992 44.7914 17.96C44.9354 18.632 44.9354 19.352 44.9354 20.696V35ZM63.5988 21.944C63.5988 17.48 65.9508 14.696 69.7908 14.696C73.3908 14.696 76.0308 17.768 76.0308 21.944C76.0308 26.792 73.4868 29.24 69.8868 29.24C66.1908 29.24 63.5988 25.928 63.5988 21.944ZM56.3508 21.944C56.3508 30.104 61.5828 35.576 67.7748 35.576C71.6148 35.576 74.3508 33.656 75.7908 31.64V35H82.7988V0.439999H75.7908V12.44C74.3508 10.232 71.8548 8.456 68.1108 8.456C61.6788 8.456 56.3508 13.832 56.3508 21.944ZM94.7706 19.688C95.2986 16.472 97.7946 14.84 100.243 14.84C103.747 14.84 105.283 16.952 105.811 19.688H94.7706ZM112.819 24.152C112.915 23.528 112.963 22.616 112.963 21.944C112.963 14.312 108.163 8.456 100.339 8.456C93.6186 8.456 87.6666 13.928 87.6666 22.04C87.6666 30.296 92.9466 35.576 100.819 35.576C106.723 35.576 110.947 32.504 112.291 27.608L105.475 26.888C104.515 28.28 103.075 29.192 100.819 29.192C97.6506 29.192 95.0586 26.984 94.6746 24.152H112.819ZM133.682 8.6C133.154 8.504 132.338 8.456 132.05 8.456C128.738 8.456 126.05 10.376 124.658 14.36V9.032H117.65V35H124.658V23.336C124.658 21.416 124.85 20.264 125.042 19.64C125.81 17.336 127.73 15.8 130.802 15.8C131.954 15.8 132.866 15.944 133.682 16.088V8.6Z" fill="currentColor"/>
    <path d="M63.415 53.3875H56.407V56.6995C54.871 54.5395 52.855 52.8115 49.207 52.8115C43.015 52.8115 37.783 57.6595 37.783 65.0035C37.783 72.2995 42.919 77.3395 49.255 77.3395C52.615 77.3395 54.919 75.7075 56.407 73.5955V75.1795C56.407 79.2115 54.631 81.8035 50.791 81.8035C47.335 81.8035 45.703 80.2195 45.127 78.5395L38.215 79.3555C38.935 83.5315 42.775 87.9955 50.695 87.9955C58.519 87.9955 63.415 82.8595 63.415 75.0835V53.3875ZM45.031 65.0995C45.031 61.3555 47.239 59.0515 50.887 59.0515C54.391 59.0515 56.695 61.5955 56.695 65.0995C56.695 69.0355 54.343 71.0515 50.887 71.0515C47.287 71.0515 45.031 68.2195 45.031 65.0995ZM85.582 52.9555C85.054 52.8595 84.238 52.8115 83.95 52.8115C80.638 52.8115 77.95 54.7315 76.558 58.7155V53.3875H69.55V79.3555H76.558V67.6915C76.558 65.7715 76.75 64.6195 76.942 63.9955C77.71 61.6915 79.63 60.1555 82.702 60.1555C83.854 60.1555 84.766 60.2995 85.582 60.4435V52.9555ZM87.3757 66.3955C87.3757 74.2195 93.3757 79.9315 101.152 79.9315C108.832 79.9315 114.88 73.8355 114.88 66.3955C114.88 58.5235 108.832 52.8115 101.152 52.8115C93.3757 52.8115 87.3757 58.5235 87.3757 66.3955ZM94.4317 66.3955C94.4317 62.3635 97.2637 59.3395 101.104 59.3395C104.944 59.3395 107.824 62.3635 107.824 66.3955C107.824 70.1395 104.944 73.4035 101.104 73.4035C97.2637 73.4035 94.4317 70.3315 94.4317 66.3955ZM126.239 53.3875H119.231V68.1715C119.231 71.0035 119.375 72.7795 119.711 73.9795C120.575 77.2435 123.071 79.9315 127.679 79.9315C130.751 79.9315 133.055 78.0115 134.735 75.1315V79.3555H141.743V53.3875H134.735V67.3555C134.735 69.0835 134.591 69.7075 134.447 70.2835C133.967 72.2515 132.479 73.4515 130.127 73.4515C128.111 73.4515 126.815 72.4915 126.431 70.7155C126.287 69.9955 126.239 69.2275 126.239 67.8835V53.3875ZM163.382 79.3555H170.39V63.2275C170.39 60.9235 170.342 59.8675 170.006 58.5235C169.142 55.2595 166.502 52.8115 162.326 52.8115C158.678 52.8115 156.278 54.9715 154.886 57.5635V53.3875H147.878V79.3555H154.886V65.3875C154.886 63.6115 155.03 62.9875 155.222 62.4115C155.798 60.4915 157.286 59.2435 159.494 59.2435C161.606 59.2435 162.902 60.3475 163.238 62.3155C163.382 62.9875 163.382 63.7075 163.382 65.0515V79.3555ZM182.046 66.2995C182.046 61.8355 184.398 59.0515 188.238 59.0515C191.838 59.0515 194.478 62.1235 194.478 66.2995C194.478 71.1475 191.934 73.5955 188.334 73.5955C184.638 73.5955 182.046 70.2835 182.046 66.2995ZM174.798 66.2995C174.798 74.4595 180.03 79.9315 186.222 79.9315C190.062 79.9315 192.798 78.0115 194.238 75.9955V79.3555H201.246V44.7955H194.238V56.7955C192.798 54.5875 190.302 52.8115 186.558 52.8115C180.126 52.8115 174.798 58.1875 174.798 66.2995Z" fill="currentColor"/>
</svg>
