<svg width="20" height="22" viewBox="0 0 20 22" fill="none" xmlns="http://www.w3.org/2000/svg">
<path d="M4.06066 11.9393L3 10.8787L0.87868 13L1.93934 14.0607L4.06066 11.9393ZM10 20L8.93934 21.0607C9.52513 21.6464 10.4749 21.6464 11.0607 21.0607L10 20ZM18.0607 14.0607L19.1213 13L17 10.8787L15.9393 11.9393L18.0607 14.0607ZM11.5 2L11.5 0.5L8.5 0.5V2L11.5 2ZM11.0607 21.0607L18.0607 14.0607L15.9393 11.9393L8.93934 18.9393L11.0607 21.0607ZM11.5 20L11.5 2L8.5 2L8.5 20H11.5ZM1.93934 14.0607L8.93934 21.0607L11.0607 18.9393L4.06066 11.9393L1.93934 14.0607Z" fill="currentColor"/>
</svg>
