<svg width="24" height="24" viewBox="0 0 24 24" fill="none" xmlns="http://www.w3.org/2000/svg">
    <path d="M11.0607 6.06066L12.1213 5L10 2.87868L8.93934 3.93934L11.0607 6.06066ZM3 12L1.93934 10.9393C1.35355 11.5251 1.35355 12.4749 1.93934 13.0607L3 12ZM8.93934 20.0607L10 21.1213L12.1213 19L11.0607 17.9393L8.93934 20.0607ZM21 13.5H22.5V10.5H21V13.5ZM1.93934 13.0607L8.93934 20.0607L11.0607 17.9393L4.06066 10.9393L1.93934 13.0607ZM3 13.5H21V10.5H3V13.5ZM8.93934 3.93934L1.93934 10.9393L4.06066 13.0607L11.0607 6.06066L8.93934 3.93934Z" fill="currentColor"/>
</svg>
