<svg width="24" height="24" viewBox="0 0 24 24" fill="none" xmlns="http://www.w3.org/2000/svg">
<path fill-rule="evenodd" clip-rule="evenodd" d="M2.43481 2.8479C1.60639 2.8479 0.934814 3.51947 0.934814 4.3479V18.6957C0.934814 19.5242 1.60639 20.1957 2.43481 20.1957H9.13047C9.4937 20.1957 9.84205 20.34 10.0989 20.5969C10.3557 20.8537 10.5 21.2021 10.5 21.5653C10.5 22.3937 11.1716 23.0653 12 23.0653C12.8285 23.0653 13.5 22.3937 13.5 21.5653C13.5 21.2021 13.6443 20.8537 13.9012 20.5969C14.158 20.34 14.5064 20.1957 14.8696 20.1957H21.5652C22.3937 20.1957 23.0652 19.5242 23.0652 18.6957V4.3479C23.0652 3.51947 22.3937 2.8479 21.5652 2.8479H15.8261C14.4136 2.8479 13.0588 3.40904 12.06 4.40788C12.0398 4.42805 12.0198 4.44836 12 4.46882C11.9802 4.44836 11.9602 4.42805 11.9401 4.40788C10.9412 3.40904 9.58651 2.8479 8.17394 2.8479H2.43481ZM13.5 17.4159C13.9379 17.2714 14.3998 17.1957 14.8696 17.1957H20.0652V5.8479H15.8261C15.2092 5.8479 14.6176 6.09297 14.1813 6.5292C13.7451 6.96542 13.5 7.55707 13.5 8.17399V17.4159ZM10.5 17.4159V8.17399C10.5 7.55707 10.255 6.96542 9.81874 6.5292C9.38251 6.09297 8.79086 5.8479 8.17394 5.8479H3.93481V17.1957H9.13047C9.60021 17.1957 10.0622 17.2714 10.5 17.4159Z" fill="currentColor"/>
</svg>
