<svg width="12" height="12" viewBox="0 0 12 12" fill="none" xmlns="http://www.w3.org/2000/svg">
<path fill-rule="evenodd" clip-rule="evenodd" d="M5.5952 0.0763685C5.74863 -0.0254562 5.94814 -0.0254562 6.10157 0.0763685L11.4921 3.6537C11.6199 3.73854 11.6968 3.88178 11.6968 4.03522V7.66156C11.6968 7.81499 11.6199 7.95823 11.4921 8.04307L6.10157 11.6204C5.94814 11.7222 5.74863 11.7222 5.5952 11.6204L0.204696 8.04307C0.0768516 7.95823 0 7.81499 0 7.66156V4.03522C0 3.88178 0.0768515 3.73854 0.204696 3.6537L5.5952 0.0763685ZM0.915766 4.88862V6.80167L2.3473 5.83864L0.915766 4.88862ZM3.1732 6.38674L1.28205 7.65897L5.3905 10.3855V7.85822L3.1732 6.38674ZM6.30627 7.85822V10.3855L10.4147 7.65897L8.52357 6.38674L6.30627 7.85822ZM9.34947 5.83864L10.781 6.80167V4.88862L9.34947 5.83864ZM10.4108 4.03522L8.52703 5.28537L6.30627 3.7914V1.31129L10.4108 4.03522ZM5.3905 1.31129V3.7914L3.16974 5.28537L1.28595 4.03522L5.3905 1.31129ZM5.84839 4.58707L3.99564 5.83346L5.84839 7.06301L7.70113 5.83346L5.84839 4.58707Z"
      fill="currentColor"/>
</svg>
