<svg width="23" height="24" viewBox="0 0 23 24" fill="none" xmlns="http://www.w3.org/2000/svg">
<path d="M11 15.5L9.93935 16.5606L11 17.6213L12.0607 16.5606L11 15.5ZM1.5 21.5L0 21.5C-3.57628e-07 21.8978 0.158035 22.2793 0.439339 22.5606C0.720644 22.8419 1.10218 23 1.5 23L1.5 21.5ZM20.5 21.5V23C21.3284 23 22 22.3284 22 21.5L20.5 21.5ZM3 16.5L3 15L-2.26498e-06 15L0 16.5L3 16.5ZM22 16.5L22 15L19 15L19 16.5L22 16.5ZM15.4393 8.93934L9.93935 14.4393L12.0607 16.5606L17.5607 11.0607L15.4393 8.93934ZM12.0607 14.4393L6.56066 8.93931L4.43934 11.0606L9.93935 16.5606L12.0607 14.4393ZM12.5 15.5V0.999984H9.50001V15.5H12.5ZM1.5 23H20.5V20H1.5V23ZM0 16.5C1.3113e-06 17.3787 1.3113e-06 18.6287 9.53674e-07 19.659C8.34465e-07 20.1741 5.96046e-07 20.6344 3.57628e-07 20.9658C2.38419e-07 21.1316 1.19209e-07 21.2651 1.19209e-07 21.3572C1.19209e-07 21.4033 0 21.4389 0 21.4631C0 21.4752 0 21.4844 0 21.4906C0 21.4937 0 21.496 0 21.4976C0 21.4984 0 21.499 0 21.4994C0 21.4996 0 21.4997 0 21.4998C0 21.4999 0 21.4999 0 21.4999C0 21.5 0 21.5 1.5 21.5C3 21.5 3 21.5 3 21.4999C3 21.4999 3 21.4999 3 21.4998C3 21.4997 3 21.4996 3 21.4994C3 21.499 3 21.4984 3 21.4976C3 21.496 3 21.4937 3 21.4906C3 21.4844 3 21.4752 3 21.4631C3 21.4389 3 21.4033 3 21.3572C3 21.2651 3 21.1316 3 20.9658C3 20.6344 3 20.1741 3 19.659C3 18.6287 3 17.3787 3 16.5L0 16.5ZM22 21.5L22 16.5L19 16.5L19 21.5L22 21.5Z" fill="currentColor"/>
</svg>
