<svg width="24" height="25" viewBox="0 0 24 25" fill="none" xmlns="http://www.w3.org/2000/svg">
<path d="M22 3.58333V21.4167C22 22 21.5 22.5 20.9167 22.5H15.8333V14.75H18.4167L18.8333 11.75H15.8333V9.83333C15.8333 9 16.0833 8.33333 17.3333 8.33333H18.9167V5.66667C18.6667 5.66667 17.6667 5.58333 16.5833 5.58333C14.25 5.58333 12.6667 7 12.6667 9.58333V11.8333H10.0833V14.8333H12.6667V22.5H3.08333C2.5 22.5 2 22 2 21.4167V3.58333C2 3 2.5 2.5 3.08333 2.5H20.9167C21.5 2.5 22 3 22 3.58333Z" fill="currentColor"/>
</svg>
