<svg width="24" height="24" viewBox="0 0 24 24" fill="none" xmlns="http://www.w3.org/2000/svg">
<path fill-rule="evenodd" clip-rule="evenodd" d="M3.52513 1.52513C4.1815 0.868749 5.07174 0.5 6 0.5H13H14C14.3978 0.5 14.7794 0.658035 15.0607 0.93934L21.0607 6.93934C21.342 7.22064 21.5 7.60218 21.5 8V9V20C21.5 20.9283 21.1313 21.8185 20.4749 22.4749C19.8185 23.1313 18.9283 23.5 18 23.5H6C5.07174 23.5 4.1815 23.1313 3.52513 22.4749C2.86875 21.8185 2.5 20.9283 2.5 20V4C2.5 3.07174 2.86875 2.1815 3.52513 1.52513ZM6 3.5H11.5V9C11.5 9.82843 12.1716 10.5 13 10.5H18.5V20C18.5 20.1326 18.4473 20.2598 18.3536 20.3536C18.2598 20.4473 18.1326 20.5 18 20.5H6C5.86739 20.5 5.74022 20.4473 5.64645 20.3536C5.55268 20.2598 5.5 20.1326 5.5 20V4C5.5 3.86739 5.55268 3.74021 5.64645 3.64645C5.74021 3.55268 5.86739 3.5 6 3.5ZM14.5 7.5H17.3787L14.5 4.62132V7.5ZM9 14.5C8.17157 14.5 7.5 15.1716 7.5 16C7.5 16.8284 8.17157 17.5 9 17.5H15C15.8284 17.5 16.5 16.8284 16.5 16C16.5 15.1716 15.8284 14.5 15 14.5H9Z" fill="currentColor"/>
</svg>
