<svg width="11" height="11" viewBox="0 0 11 11" fill="none" xmlns="http://www.w3.org/2000/svg">
<path fill-rule="evenodd" clip-rule="evenodd" d="M5.48318 0C2.45566 0 0 2.45566 0 5.48318C0 7.9052 1.58104 9.95719 3.73394 10.6972C4.00306 10.7309 4.10398 10.5627 4.10398 10.4281C4.10398 10.2936 4.10398 9.95719 4.10398 9.48624C2.59021 9.82263 2.25382 8.74618 2.25382 8.74618C2.01835 8.10703 1.64832 7.93884 1.64832 7.93884C1.14373 7.60245 1.68196 7.60245 1.68196 7.60245C2.22018 7.63609 2.52294 8.17431 2.52294 8.17431C3.02752 9.01529 3.80122 8.77982 4.10398 8.64526C4.13761 8.27523 4.30581 8.03975 4.44037 7.9052C3.22936 7.77064 1.95107 7.29969 1.95107 5.18043C1.95107 4.57492 2.15291 4.10398 2.52294 3.70031C2.4893 3.59939 2.28746 3.02752 2.59021 2.28746C2.59021 2.28746 3.06116 2.15291 4.10398 2.85933C4.54128 2.72477 5.01223 2.69113 5.48318 2.69113C5.95413 2.69113 6.42508 2.75841 6.86238 2.85933C7.9052 2.15291 8.37615 2.28746 8.37615 2.28746C8.6789 3.02752 8.47706 3.59939 8.44342 3.73394C8.77982 4.10398 9.01529 4.60856 9.01529 5.21407C9.01529 7.33333 7.737 7.77064 6.52599 7.9052C6.72783 8.07339 6.89602 8.40979 6.89602 8.91437C6.89602 9.65443 6.89602 10.2263 6.89602 10.4281C6.89602 10.5627 6.99694 10.7309 7.26605 10.6972C9.4526 9.95719 11 7.9052 11 5.48318C10.9664 2.45566 8.5107 0 5.48318 0Z"
      fill="currentColor"/>
</svg>
