<svg width="20" height="20" viewBox="0 0 20 20" fill="none" xmlns="http://www.w3.org/2000/svg">
<path d="M0.5 15C0.5 15.8284 1.17157 16.5 2 16.5C2.82843 16.5 3.5 15.8284 3.5 15H0.5ZM2 9.8H0.5H2ZM10 2V3.5V2ZM18 9.8H19.5H18ZM16.5 15C16.5 15.8284 17.1716 16.5 18 16.5C18.8284 16.5 19.5 15.8284 19.5 15H16.5ZM13.5556 16.2857H15.0556H13.5556ZM13.5556 13.7143H15.0556H13.5556ZM15.3333 12V13.5V12ZM18 12H19.5C19.5 11.1716 18.8284 10.5 18 10.5V12ZM2 16.2857H0.5H2ZM6.44444 16.2857H7.94444H6.44444ZM6.44444 13.7143H7.94444H6.44444ZM2 12V10.5C1.17157 10.5 0.5 11.1716 0.5 12H2ZM3.5 15V9.8H0.5V15H3.5ZM3.5 9.8C3.5 8.14157 4.17535 6.54314 5.3903 5.35857L3.296 3.21057C1.51036 4.95156 0.5 7.32106 0.5 9.8H3.5ZM5.3903 5.35857C6.60653 4.17274 8.26401 3.5 10 3.5V0.5C7.49252 0.5 5.08034 1.47083 3.296 3.21057L5.3903 5.35857ZM10 3.5C11.736 3.5 13.3935 4.17273 14.6097 5.35857L16.704 3.21057C14.9197 1.47083 12.5075 0.5 10 0.5V3.5ZM14.6097 5.35857C15.8247 6.54314 16.5 8.14157 16.5 9.8H19.5C19.5 7.32106 18.4896 4.95156 16.704 3.21057L14.6097 5.35857ZM16.5 9.8V15H19.5V9.8H16.5ZM16.5 16.2857C16.5 16.3246 16.4845 16.3734 16.4381 16.4181L18.5205 18.5777C19.1409 17.9794 19.5 17.1562 19.5 16.2857H16.5ZM16.4381 16.4181C16.3898 16.4647 16.3131 16.5 16.2222 16.5V19.5C17.0743 19.5 17.902 19.1741 18.5205 18.5777L16.4381 16.4181ZM16.2222 16.5H15.3333V19.5H16.2222V16.5ZM15.3333 16.5C15.2424 16.5 15.1657 16.4647 15.1175 16.4181L13.0351 18.5777C13.6536 19.1741 14.4813 19.5 15.3333 19.5V16.5ZM15.1175 16.4181C15.0711 16.3734 15.0556 16.3246 15.0556 16.2857H12.0556C12.0556 17.1562 12.4147 17.9794 13.0351 18.5777L15.1175 16.4181ZM15.0556 16.2857V13.7143H12.0556V16.2857H15.0556ZM15.0556 13.7143C15.0556 13.6754 15.0711 13.6266 15.1175 13.5819L13.0351 11.4223C12.4147 12.0206 12.0556 12.8438 12.0556 13.7143H15.0556ZM15.1175 13.5819C15.1657 13.5353 15.2424 13.5 15.3333 13.5V10.5C14.4813 10.5 13.6536 10.8259 13.0351 11.4223L15.1175 13.5819ZM15.3333 13.5H18V10.5H15.3333V13.5ZM16.5 12V16.2857H19.5V12H16.5ZM0.5 16.2857C0.5 17.1562 0.859098 17.9794 1.4795 18.5777L3.5619 16.4181C3.5155 16.3734 3.5 16.3246 3.5 16.2857H0.5ZM1.4795 18.5777C2.09804 19.1741 2.9257 19.5 3.77778 19.5V16.5C3.68686 16.5 3.61016 16.4647 3.5619 16.4181L1.4795 18.5777ZM3.77778 19.5H4.66667V16.5H3.77778V19.5ZM4.66667 19.5C5.51874 19.5 6.34641 19.1741 6.96495 18.5777L4.88254 16.4181C4.83429 16.4647 4.75758 16.5 4.66667 16.5V19.5ZM6.96495 18.5777C7.58535 17.9794 7.94444 17.1562 7.94444 16.2857H4.94444C4.94444 16.3246 4.92894 16.3734 4.88254 16.4181L6.96495 18.5777ZM7.94444 16.2857V13.7143H4.94444V16.2857H7.94444ZM7.94444 13.7143C7.94444 12.8438 7.58535 12.0206 6.96495 11.4223L4.88254 13.5819C4.92894 13.6266 4.94444 13.6754 4.94444 13.7143H7.94444ZM6.96495 11.4223C6.34641 10.8259 5.51874 10.5 4.66667 10.5V13.5C4.75758 13.5 4.83429 13.5353 4.88254 13.5819L6.96495 11.4223ZM4.66667 10.5H2V13.5H4.66667V10.5ZM0.5 12V16.2857H3.5V12H0.5Z" fill="currentColor"/>
</svg>
