<svg width="11" height="11" viewBox="0 0 11 11" fill="none" xmlns="http://www.w3.org/2000/svg">
<path d="M5.5 0.993976C6.95783 0.993976 7.15663 0.993976 7.75301 0.993976C8.28313 0.993976 8.54819 1.12651 8.74699 1.19277C9.01205 1.3253 9.21084 1.39157 9.40964 1.59036C9.60843 1.78916 9.74096 1.98795 9.80723 2.25301C9.8735 2.45181 9.93976 2.71687 10.006 3.24699C10.006 3.84337 10.006 3.9759 10.006 5.5C10.006 7.0241 10.006 7.15663 10.006 7.75301C10.006 8.28313 9.8735 8.54819 9.80723 8.74699C9.6747 9.01205 9.60843 9.21084 9.40964 9.40964C9.21084 9.60843 9.01205 9.74096 8.74699 9.80723C8.54819 9.8735 8.28313 9.93976 7.75301 10.006C7.15663 10.006 7.0241 10.006 5.5 10.006C3.9759 10.006 3.84337 10.006 3.24699 10.006C2.71687 10.006 2.45181 9.8735 2.25301 9.80723C1.98795 9.6747 1.78916 9.60843 1.59036 9.40964C1.39157 9.21084 1.25904 9.01205 1.19277 8.74699C1.12651 8.54819 1.06024 8.28313 0.993976 7.75301C0.993976 7.15663 0.993976 7.0241 0.993976 5.5C0.993976 3.9759 0.993976 3.84337 0.993976 3.24699C0.993976 2.71687 1.12651 2.45181 1.19277 2.25301C1.3253 1.98795 1.39157 1.78916 1.59036 1.59036C1.78916 1.39157 1.98795 1.25904 2.25301 1.19277C2.45181 1.12651 2.71687 1.06024 3.24699 0.993976C3.84337 0.993976 4.04217 0.993976 5.5 0.993976ZM5.5 0C3.9759 0 3.84337 0 3.24699 0C2.6506 0 2.25301 0.13253 1.92169 0.265061C1.59036 0.397591 1.25904 0.596386 0.927711 0.927711C0.596386 1.25904 0.463856 1.5241 0.265061 1.92169C0.13253 2.25301 0.0662651 2.6506 0 3.24699C0 3.84337 0 4.04217 0 5.5C0 7.0241 0 7.15663 0 7.75301C0 8.3494 0.13253 8.74699 0.265061 9.07831C0.397591 9.40964 0.596386 9.74096 0.927711 10.0723C1.25904 10.4036 1.5241 10.5361 1.92169 10.7349C2.25301 10.8675 2.6506 10.9337 3.24699 11C3.84337 11 4.04217 11 5.5 11C6.95783 11 7.15663 11 7.75301 11C8.3494 11 8.74699 10.8675 9.07831 10.7349C9.40964 10.6024 9.74096 10.4036 10.0723 10.0723C10.4036 9.74096 10.5361 9.4759 10.7349 9.07831C10.8675 8.74699 10.9337 8.3494 11 7.75301C11 7.15663 11 6.95783 11 5.5C11 4.04217 11 3.84337 11 3.24699C11 2.6506 10.8675 2.25301 10.7349 1.92169C10.6024 1.59036 10.4036 1.25904 10.0723 0.927711C9.74096 0.596386 9.4759 0.463856 9.07831 0.265061C8.74699 0.13253 8.3494 0.0662651 7.75301 0C7.15663 0 7.0241 0 5.5 0Z" fill="currentColor"/>
<path d="M5.5 2.6506C3.90964 2.6506 2.6506 3.90964 2.6506 5.5C2.6506 7.09036 3.90964 8.3494 5.5 8.3494C7.09036 8.3494 8.3494 7.09036 8.3494 5.5C8.3494 3.90964 7.09036 2.6506 5.5 2.6506ZM5.5 7.35542C4.50602 7.35542 3.64458 6.56024 3.64458 5.5C3.64458 4.50602 4.43976 3.64458 5.5 3.64458C6.49398 3.64458 7.35542 4.43976 7.35542 5.5C7.35542 6.49398 6.49398 7.35542 5.5 7.35542Z" fill="currentColor"/>
<path d="M8.41566 3.24699C8.78163 3.24699 9.07831 2.95031 9.07831 2.58434C9.07831 2.21837 8.78163 1.92169 8.41566 1.92169C8.04969 1.92169 7.75301 2.21837 7.75301 2.58434C7.75301 2.95031 8.04969 3.24699 8.41566 3.24699Z" fill="currentColor"/>
</svg>
