<svg width="12" height="11" viewBox="0 0 12 11" fill="none" xmlns="http://www.w3.org/2000/svg">
<path d="M5.88355 0.993976C7.34138 0.993976 7.54017 0.993976 8.13656 0.993976C8.66668 0.993976 8.93174 1.12651 9.13053 1.19277C9.39559 1.3253 9.59439 1.39157 9.79318 1.59036C9.99198 1.78916 10.1245 1.98795 10.1908 2.25301C10.257 2.45181 10.3233 2.71687 10.3896 3.24699C10.3896 3.84337 10.3896 3.9759 10.3896 5.5C10.3896 7.0241 10.3896 7.15663 10.3896 7.75301C10.3896 8.28313 10.257 8.54819 10.1908 8.74699C10.0582 9.01205 9.99198 9.21084 9.79318 9.40964C9.59439 9.60843 9.39559 9.74096 9.13053 9.80723C8.93174 9.8735 8.66668 9.93976 8.13656 10.006C7.54017 10.006 7.40764 10.006 5.88355 10.006C4.35945 10.006 4.22692 10.006 3.63053 10.006C3.10041 10.006 2.83535 9.8735 2.63656 9.80723C2.3715 9.6747 2.1727 9.60843 1.97391 9.40964C1.77511 9.21084 1.64258 9.01205 1.57632 8.74699C1.51005 8.54819 1.44379 8.28313 1.37752 7.75301C1.37752 7.15663 1.37752 7.0241 1.37752 5.5C1.37752 3.9759 1.37752 3.84337 1.37752 3.24699C1.37752 2.71687 1.51005 2.45181 1.57632 2.25301C1.70885 1.98795 1.77511 1.78916 1.97391 1.59036C2.1727 1.39157 2.3715 1.25904 2.63656 1.19277C2.83535 1.12651 3.10041 1.06024 3.63053 0.993976C4.22692 0.993976 4.42571 0.993976 5.88355 0.993976ZM5.88355 0C4.35945 0 4.22692 0 3.63053 0C3.03415 0 2.63656 0.13253 2.30523 0.265061C1.97391 0.397591 1.64258 0.596386 1.31126 0.927711C0.979931 1.25904 0.847401 1.5241 0.648606 1.92169C0.516075 2.25301 0.44981 2.6506 0.383545 3.24699C0.383545 3.84337 0.383545 4.04217 0.383545 5.5C0.383545 7.0241 0.383545 7.15663 0.383545 7.75301C0.383545 8.3494 0.516075 8.74699 0.648606 9.07831C0.781136 9.40964 0.979931 9.74096 1.31126 10.0723C1.64258 10.4036 1.90764 10.5361 2.30523 10.7349C2.63656 10.8675 3.03415 10.9337 3.63053 11C4.22692 11 4.42571 11 5.88355 11C7.34138 11 7.54017 11 8.13656 11C8.73294 11 9.13053 10.8675 9.46186 10.7349C9.79318 10.6024 10.1245 10.4036 10.4558 10.0723C10.7872 9.74096 10.9197 9.4759 11.1185 9.07831C11.251 8.74699 11.3173 8.3494 11.3835 7.75301C11.3835 7.15663 11.3835 6.95783 11.3835 5.5C11.3835 4.04217 11.3835 3.84337 11.3835 3.24699C11.3835 2.6506 11.251 2.25301 11.1185 1.92169C10.986 1.59036 10.7872 1.25904 10.4558 0.927711C10.1245 0.596386 9.85945 0.463856 9.46186 0.265061C9.13053 0.13253 8.73294 0.0662651 8.13656 0C7.54017 0 7.40764 0 5.88355 0Z" fill="currentColor"/>
<path d="M5.88355 2.6506C4.29318 2.6506 3.03415 3.90964 3.03415 5.5C3.03415 7.09036 4.29318 8.3494 5.88355 8.3494C7.47391 8.3494 8.73294 7.09036 8.73294 5.5C8.73294 3.90964 7.47391 2.6506 5.88355 2.6506ZM5.88355 7.35542C4.88957 7.35542 4.02812 6.56024 4.02812 5.5C4.02812 4.50602 4.8233 3.64458 5.88355 3.64458C6.87752 3.64458 7.73897 4.43976 7.73897 5.5C7.73897 6.49398 6.87752 7.35542 5.88355 7.35542Z" fill="currentColor"/>
<path d="M8.79921 3.24699C9.16518 3.24699 9.46186 2.95031 9.46186 2.58434C9.46186 2.21837 9.16518 1.92169 8.79921 1.92169C8.43324 1.92169 8.13656 2.21837 8.13656 2.58434C8.13656 2.95031 8.43324 3.24699 8.79921 3.24699Z" fill="currentColor"/>
</svg>
