<svg width="24" height="25" viewBox="0 0 24 25" fill="none" xmlns="http://www.w3.org/2000/svg">
<path d="M21.9167 8.41667C21.8333 7.33333 21.6667 6.66667 21.4167 6C21.25 5.33333 20.9167 4.75 20.3333 4.16667C19.75 3.58333 19.25 3.25 18.5833 3C17.9167 2.75 17.25 2.58333 16.1667 2.5C15.0833 2.5 14.75 2.5 12 2.5C9.25 2.5 8.91667 2.5 7.91667 2.58333C6.83333 2.58333 6.08333 2.75 5.41667 3C4.83333 3.25 4.25 3.58333 3.66667 4.16667C3.08333 4.75 2.75 5.33333 2.5 5.91667C2.25 6.58333 2.08333 7.33333 2.08333 8.41667C2 9.41667 2 9.75 2 12.5C2 15.25 2 15.5833 2.08333 16.5833C2.16667 17.6667 2.33333 18.3333 2.58333 19C2.75 19.6667 3.08333 20.25 3.66667 20.8333C4.25 21.4167 4.75 21.75 5.41667 22C6.08333 22.25 6.75 22.4167 7.83333 22.5C8.91667 22.5 9.25 22.5 12 22.5C14.75 22.5 15.0833 22.5 16.0833 22.4167C17.1667 22.3333 17.8333 22.1667 18.5 21.9167C19.1667 21.6667 19.75 21.3333 20.25 20.75C20.8333 20.1667 21.1667 19.6667 21.4167 19C21.6667 18.3333 21.8333 17.6667 21.9167 16.5833C22 15.5833 22 15.25 22 12.5C22 9.75 22 9.41667 21.9167 8.41667ZM20.1667 16.5C20.0833 17.5 20 18 19.8333 18.3333C19.6667 18.8333 19.4167 19.1667 19.0833 19.5C18.75 19.8333 18.4167 20.0833 17.9167 20.25C17.5833 20.4167 17 20.5833 16.0833 20.5833C15 20.6667 14.75 20.6667 12.0833 20.6667C9.41667 20.6667 9.08333 20.6667 8.08333 20.5833C7.08333 20.5 6.58333 20.4167 6.25 20.25C5.75 20.0833 5.41667 19.8333 5.08333 19.5C4.75 19.1667 4.5 18.8333 4.33333 18.3333C4.16667 18 4 17.4167 4 16.5C3.91667 15.4167 3.91667 15.1667 3.91667 12.5C3.91667 9.83333 3.91667 9.5 4 8.5C3.91667 7.5 4.08333 6.91667 4.16667 6.58333C4.33333 6.08333 4.58333 5.75 4.91667 5.41667C5.25 5.08333 5.58333 4.83333 6.08333 4.66667C6.41667 4.58333 7 4.41667 8 4.33333C9 4.33333 9.33333 4.33333 12 4.33333C14.6667 4.33333 15 4.33333 16 4.41667C17 4.5 17.5 4.58333 17.8333 4.75C18.3333 4.91667 18.6667 5.16667 19 5.5C19.3333 5.83333 19.5833 6.16667 19.75 6.66667C19.9167 7 20.0833 7.58333 20.0833 8.5C20.1667 9.58333 20.1667 9.83333 20.1667 12.5C20.1667 15.1667 20.1667 15.5 20.1667 16.5ZM12 7.33333C9.16667 7.33333 6.83333 9.66667 6.83333 12.5C6.83333 15.3333 9.16667 17.6667 12 17.6667C14.8333 17.6667 17.1667 15.3333 17.1667 12.5C17.1667 9.66667 14.8333 7.33333 12 7.33333ZM12 15.8333C10.1667 15.8333 8.66667 14.3333 8.66667 12.5C8.66667 10.6667 10.1667 9.16667 12 9.16667C13.8333 9.16667 15.3333 10.6667 15.3333 12.5C15.3333 14.3333 13.8333 15.8333 12 15.8333ZM18.5 7.16667C18.5 7.83333 18 8.33333 17.3333 8.33333C16.6667 8.33333 16.1667 7.83333 16.1667 7.16667C16.1667 6.5 16.6667 6 17.3333 6C18 6 18.5 6.5 18.5 7.16667Z" fill="currentColor"/>
</svg>
