<svg width="24" height="25" viewBox="0 0 24 25" fill="none" xmlns="http://www.w3.org/2000/svg">
<path fill-rule="evenodd" clip-rule="evenodd" d="M21 19.8636H17.0218V14.1112C17.0218 12.6055 16.3995 11.5776 15.0311 11.5776C13.9844 11.5776 13.4023 12.2712 13.1313 12.9397C13.0297 13.1797 13.0456 13.5139 13.0456 13.8482V19.8636H9.10443C9.10443 19.8636 9.15523 9.6737 9.10443 8.74743H13.0456V10.492C13.2785 9.72923 14.5379 8.64055 16.5476 8.64055C19.041 8.64055 21 10.2395 21 13.6826V19.8636ZM5.11876 7.35699H5.09337C3.82338 7.35699 3 6.50721 3 5.43006C3 4.33196 3.84772 3.5 5.14311 3.5C6.43744 3.5 7.2333 4.32987 7.2587 5.42693C7.2587 6.50407 6.43744 7.35699 5.11876 7.35699ZM3.45401 8.74743H6.96237V19.8636H3.45401V8.74743Z" fill="currentColor"/>
</svg>
