<svg width="72" height="72" viewBox="0 0 72 72" fill="none" xmlns="http://www.w3.org/2000/svg">
    <path fill-rule="evenodd" clip-rule="evenodd" d="M25 21.4781C25.012 18.175 26.272 15.0057 28.513 12.6651C30.755 10.3235 33.7973 9.00202 36.9759 9L36.9764 9.75552L36.9832 9.76258L36.985 9.00706C40.1649 9.01484 43.2074 10.3363 45.4543 12.6746C47.7003 15.012 48.9712 18.1769 49 21.4813L49 21.4879V33.3279H54.25C54.6642 33.3279 55 33.6682 55 34.0881V61.2398C55 61.6596 54.6642 62 54.25 62H19.75C19.3358 62 19 61.6596 19 61.2398V34.0881C19 33.6682 19.3358 33.3279 19.75 33.3279H42.1686V21.3294C42.1639 19.8769 41.6093 18.4914 40.6354 17.4752C39.6622 16.4599 38.3509 15.8961 36.9906 15.8975C35.6304 15.8988 34.32 16.4652 33.3487 17.4825C32.3765 18.5008 31.8244 19.8875 31.8224 21.3401V27.2706L25 27.2827V21.4781ZM25.75 55.1578V40.1701H48.25V55.1578H25.75Z" fill="currentColor"/>
</svg>
