<svg width="327" height="324" viewBox="0 0 327 324" fill="none" xmlns="http://www.w3.org/2000/svg">
<mask id="path-1-inside-1_728_2606" fill="white">
<path d="M0 8C0 3.58172 3.58172 0 8 0H227C282.228 0 327 44.7715 327 100V316C327 320.418 323.418 324 319 324H8C3.58173 324 0 320.418 0 316V8Z"/>
</mask>
<path d="M0 8C0 3.58172 3.58172 0 8 0H227C282.228 0 327 44.7715 327 100V316C327 320.418 323.418 324 319 324H8C3.58173 324 0 320.418 0 316V8Z" fill="#DBE6EC" stroke="black" stroke-width="20" mask="url(#path-1-inside-1_728_2606)"/>
<path d="M217 5H227C279.467 5 322 47.5329 322 100V110H217V5Z" fill="#DBE6EC" stroke="black" stroke-width="10"/>
<path d="M154.729 176.806V175.891C154.753 171.643 155.152 168.263 155.926 165.752C156.724 163.24 157.851 161.222 159.306 159.696C160.761 158.147 162.533 156.727 164.622 155.436C166.054 154.545 167.333 153.57 168.46 152.514C169.61 151.435 170.513 150.238 171.17 148.923C171.828 147.586 172.156 146.095 172.156 144.452C172.156 142.598 171.722 140.99 170.854 139.629C169.985 138.268 168.812 137.212 167.333 136.461C165.878 135.709 164.247 135.334 162.439 135.334C160.773 135.334 159.189 135.698 157.687 136.425C156.208 137.129 154.976 138.209 153.99 139.664C153.028 141.096 152.488 142.915 152.371 145.121H139.837C139.955 140.662 141.034 136.93 143.076 133.926C145.142 130.922 147.864 128.668 151.244 127.166C154.647 125.664 158.403 124.913 162.51 124.913C166.993 124.913 170.936 125.699 174.339 127.272C177.766 128.844 180.43 131.086 182.331 133.996C184.255 136.883 185.217 140.31 185.217 144.276C185.217 146.952 184.783 149.346 183.915 151.458C183.07 153.57 181.861 155.448 180.289 157.091C178.716 158.734 176.85 160.201 174.691 161.492C172.79 162.665 171.229 163.886 170.009 165.153C168.812 166.421 167.92 167.911 167.333 169.624C166.77 171.314 166.476 173.403 166.453 175.891V176.806H154.729ZM160.855 198.775C158.743 198.775 156.924 198.023 155.398 196.521C153.873 195.019 153.11 193.189 153.11 191.029C153.11 188.917 153.873 187.11 155.398 185.608C156.924 184.106 158.743 183.354 160.855 183.354C162.944 183.354 164.751 184.106 166.277 185.608C167.826 187.11 168.6 188.917 168.6 191.029C168.6 192.461 168.237 193.764 167.509 194.937C166.805 196.111 165.866 197.049 164.693 197.754C163.543 198.434 162.263 198.775 160.855 198.775Z" fill="#131212"/>
</svg>
