<svg width="24" height="24" viewBox="0 0 24 24" fill="none" xmlns="http://www.w3.org/2000/svg">
    <path fill-rule="evenodd" clip-rule="evenodd" d="M1.5 5C1.5 3.61929 2.61929 2.5 4 2.5H11C11.8284 2.5 12.5 3.17157 12.5 4C12.5 4.82843 11.8284 5.5 11 5.5H4.5V20H18V15C18 14.1716 18.6716 13.5 19.5 13.5C20.3284 13.5 21 14.1716 21 15V20.5C21 21.8807 19.8807 23 18.5 23H4C2.61929 23 1.5 21.8807 1.5 20.5V5Z" fill="currentColor"/>
    <path d="M11.4509 11.7284L11.4511 11.7286L11.4576 11.7222L18.501 4.6803L20.3207 6.5L13.3214 13.4993L13.3212 13.4991L13.3149 13.5063C13.1142 13.7343 12.9016 13.837 12.6803 13.854L11.15 13.8526V12.2531C11.1671 12.1031 11.2724 11.8864 11.4509 11.7284ZM22.5277 7.54568L22.5278 7.54566C22.9306 7.1428 23.15 6.56008 23.15 6C23.15 5.42927 22.9239 4.93721 22.5278 4.54111L20.4609 2.47427C20.4608 2.47419 20.4608 2.47411 20.4607 2.47403C20.0675 2.07789 19.5721 1.85 19 1.85C18.439 1.85 17.8572 2.07069 17.4548 2.475C17.4547 2.47507 17.4547 2.47514 17.4546 2.47521L9.87923 10.0505C9.30251 10.5598 8.92032 11.3285 8.85373 12.1526L8.85326 12.1526L8.85325 12.1645L8.85 15.0014V15.0016V16.0016V16.1516H9H10H12.7564V16.1519L12.7666 16.1512C13.6708 16.0898 14.4493 15.7029 15 15.0699L22.5277 7.54568Z" fill="currentColor"/>
</svg>
