<svg width="24" height="24" viewBox="0 0 24 24" xmlns="http://www.w3.org/2000/svg">
    <path d="M15.62 1C15.2472 1.62357 14.7158 2.13717 14.0799 2.4885C13.444 2.83983 12.7263 3.01632 12 3C11.275 3.01661 10.5586 2.84015 9.92425 2.48871C9.28989 2.13727 8.76039 1.62348 8.39 1L4 1V23H8.39C8.76039 22.3765 9.28989 21.8627 9.92425 21.5113C10.5586 21.1598 11.275 20.9834 12 21C12.7263 20.9837 13.444 21.1602 14.0799 21.5115C14.7158 21.8628 15.2472 22.3764 15.62 23H20V1H15.62ZM17 20C15.6396 18.7405 13.8539 18.0409 12 18.0409C10.1461 18.0409 8.36044 18.7405 7 20V4C8.34864 5.283 10.1386 5.99897 12 6C13.8614 5.99897 15.6514 5.283 17 4V20ZM10 10.5H14V13.5H10V10.5Z" fill="currentColor"/>
</svg>
