<svg width="24" height="25" viewBox="0 0 24 25" fill="none" xmlns="http://www.w3.org/2000/svg">
<path d="M21.6364 7.72078C21.4026 6.9026 20.7013 6.2013 19.8831 5.96753C18.2468 5.5 12.0519 5.5 12.0519 5.5C12.0519 5.5 5.74026 5.5 4.22078 5.96753C3.28571 6.2013 2.7013 6.78571 2.46753 7.72078C2 9.24026 2 12.513 2 12.513C2 12.513 2 15.7857 2.46753 17.3052C2.7013 18.1234 3.4026 18.8247 4.22078 19.0584C5.74026 19.526 12.0519 19.526 12.0519 19.526C12.0519 19.526 18.3636 19.526 19.8831 19.0584C20.7013 18.8247 21.4026 18.1234 21.6364 17.3052C21.987 15.7857 21.987 12.513 21.987 12.513C21.987 12.513 22.1039 9.24026 21.6364 7.72078ZM10.0649 15.5519V9.47403L15.2078 12.513L10.0649 15.5519Z" fill="currentColor"/>
</svg>
