<svg width="24" height="24" viewBox="0 0 24 24" fill="none" xmlns="http://www.w3.org/2000/svg">
<path fill-rule="evenodd" clip-rule="evenodd" d="M7.7 2C8.22467 2 8.65 2.42533 8.65 2.95V3.9H14.35V2.95C14.35 2.42533 14.7753 2 15.3 2C15.8247 2 16.25 2.42533 16.25 2.95V3.9H18.15C19.7197 3.9 21 5.18033 21 6.75V18.15C21 19.7197 19.7197 21 18.15 21H4.85C3.28033 21 2 19.7197 2 18.15V6.75C2 5.18033 3.28033 3.9 4.85 3.9H6.75V2.95C6.75 2.42533 7.17533 2 7.7 2ZM6.75 5.8H4.85C4.32967 5.8 3.9 6.22967 3.9 6.75V18.15C3.9 18.6703 4.32967 19.1 4.85 19.1H18.15C18.6703 19.1 19.1 18.6703 19.1 18.15V6.75C19.1 6.22967 18.6703 5.8 18.15 5.8H16.25V6.75C16.25 7.27467 15.8247 7.7 15.3 7.7C14.7753 7.7 14.35 7.27467 14.35 6.75V5.8H8.65V6.75C8.65 7.27467 8.22467 7.7 7.7 7.7C7.17533 7.7 6.75 7.27467 6.75 6.75V5.8Z"
      fill="currentColor"/>
<path fill-rule="evenodd" clip-rule="evenodd" d="M10.6594 17L10.6594 10.8008L9.18857 12.2365L8 11.0764L10.9056 8.24028C11.2338 7.91992 11.7659 7.91991 12.0941 8.24024L15 11.0763L13.8115 12.2365L12.3403 10.8007L12.3403 17L10.6594 17Z"
      fill="currentColor"/>
</svg>
