<svg width="24" height="24" viewBox="0 0 24 24" fill="none" xmlns="http://www.w3.org/2000/svg">
<path fill-rule="evenodd" clip-rule="evenodd" d="M12.4334 5.52501C14.417 3.49166 17.5388 3.49166 19.5224 5.52501C21.4925 7.5445 21.4925 10.7015 19.5224 12.7209L12 20.4321L4.47756 12.7209C2.50748 10.7015 2.50748 7.5445 4.47756 5.52501L4.48754 5.51478L4.4978 5.50484C6.4767 3.589 9.56749 3.589 11.5464 5.50484L11.5567 5.51478L12 5.96924L12.4334 5.52501ZM18.0908 6.9216C16.8921 5.6928 15.0637 5.6928 13.865 6.9216L12 8.83335L10.1457 6.93251C8.9454 5.77999 7.09971 5.77978 5.8992 6.93187C4.69695 8.17478 4.70027 10.0851 5.90918 11.3244L12 17.5679L18.0908 11.3244C19.3031 10.0817 19.3031 8.16424 18.0908 6.9216Z"
      fill="currentColor"/>
</svg>
