<svg width="11" height="11" viewBox="0 0 11 11" fill="none" xmlns="http://www.w3.org/2000/svg">
<path fill-rule="evenodd" clip-rule="evenodd" d="M4.3113 0.00454061C4.30769 0.00815657 4.30473 0.848695 4.30473 1.87241V3.73372L4.28268 3.72818C4.27055 3.72513 3.70721 3.54428 3.03081 3.32628C2.35441 3.10827 1.55249 2.84985 1.24875 2.75199C0.945005 2.65414 0.695484 2.57546 0.69424 2.57712C0.681334 2.59459 -0.00563887 4.73617 3.49523e-05 4.74126C0.00425847 4.74505 0.805874 5.03596 1.7814 5.38775C2.75692 5.73953 3.56084 6.02952 3.56789 6.03216C3.57494 6.03481 3.57876 6.04203 3.57638 6.04821C3.57401 6.0544 3.07772 6.73623 2.47353 7.5634C1.86933 8.39056 1.37508 9.06954 1.37521 9.07223C1.37546 9.0779 3.17658 10.449 3.18378 10.449C3.18642 10.449 3.69689 9.77656 4.31817 8.95464C4.93945 8.13272 5.45186 7.46068 5.45686 7.46123C5.46186 7.46177 5.98629 8.15053 6.62227 8.99182C7.25825 9.8331 7.78144 10.5241 7.78492 10.5275C7.79082 10.5331 9.60177 9.22666 9.63702 9.19131C9.65201 9.17627 9.5748 9.06407 8.54688 7.60723C7.8897 6.67581 7.44556 6.03771 7.45282 6.03534C7.66896 5.96452 10.995 4.82585 10.9999 4.821C11.0113 4.80968 10.3101 2.66346 10.295 2.66346C10.2879 2.66346 9.48608 2.90379 8.51323 3.19753C7.54038 3.49126 6.7401 3.73159 6.73482 3.73159C6.72859 3.73159 6.72434 3.07607 6.72274 1.86727L6.72027 0.00294334L5.51907 0.000454292C4.85841 -0.000917615 4.31491 0.000924659 4.3113 0.00454061Z"
      fill="currentColor"/>
</svg>
