<svg width="24" height="24" viewBox="0 0 24 24" fill="none" xmlns="http://www.w3.org/2000/svg">
<path fill-rule="evenodd" clip-rule="evenodd" d="M2.1665 15.25L6.13858 15.25L13.8916 6.97198C14.0492 6.80375 14.2694 6.7083 14.4999 6.7083L17.6665 6.7083L17.6665 5.49998C17.6665 5.16292 17.8695 4.85905 18.1809 4.73006C18.4923 4.60107 18.8508 4.67237 19.0891 4.91071L21.1308 6.95238C21.4562 7.27782 21.4562 7.80547 21.1308 8.13092L19.0891 10.1726C18.8508 10.4109 18.4923 10.4822 18.1809 10.3532C17.8695 10.2242 17.6665 9.92038 17.6665 9.58332L17.6665 8.375L14.8611 8.375L7.1081 16.653C6.95054 16.8212 6.73034 16.9167 6.49986 16.9167L2.1665 16.9167L2.1665 15.25Z"
      fill="currentColor"/>
<path fill-rule="evenodd" clip-rule="evenodd" d="M2.1665 8.87502L6.13979 8.87502L13.893 17.1128C14.0505 17.2801 14.2701 17.375 14.4999 17.375L17.6665 17.375L17.6665 18.5835C17.6665 18.9206 17.8695 19.2244 18.1809 19.3534C18.4923 19.4824 18.8508 19.4111 19.0891 19.1728L21.131 17.1309C21.4564 16.8055 21.4564 16.2778 21.131 15.9524L19.0891 13.9105C18.8508 13.6722 18.4923 13.6009 18.1809 13.7299C17.8695 13.8589 17.6665 14.1628 17.6665 14.4998L17.6665 15.7083L14.8599 15.7083L7.1067 7.47052C6.94922 7.30319 6.72964 7.20831 6.49986 7.20831L2.1665 7.20831L2.1665 8.87502Z"
      fill="currentColor"/>
</svg>
